# This file uses centimeters as units for non-parametric coordinates.

mtllib grassCards.mtl
g default
v 2.596399 3.488573 -2.180472
v 2.313651 3.488573 -2.561610
v 2.030904 3.488573 -2.942750
v 2.350860 2.851532 -1.998319
v 2.068113 2.851532 -2.379458
v 1.785365 2.851532 -2.760597
v 2.177474 2.171665 -1.869693
v 1.894727 2.171665 -2.250832
v 1.611979 2.171665 -2.631971
v 2.059564 1.460483 -1.782222
v 1.776817 1.460483 -2.163361
v 1.494069 1.460483 -2.544500
v 2.057190 0.708372 -1.780461
v 1.774443 0.708372 -2.161600
v 1.491696 0.708372 -2.542739
v 2.061395 0.000000 -1.783580
v 1.778648 0.000000 -2.164719
v 1.495901 0.000000 -2.545858
v -1.821301 3.591716 -2.853858
v -2.423249 3.591716 -1.747277
v -3.025196 3.591716 -0.640696
v -1.403545 2.982471 -2.626611
v -2.005493 2.982471 -1.520030
v -2.607440 2.982471 -0.413449
v -1.051515 2.304304 -2.435118
v -1.653463 2.304304 -1.328537
v -2.255410 2.304304 -0.221955
v -0.750420 1.574885 -2.271331
v -1.352368 1.574885 -1.164750
v -1.954315 1.574885 -0.058169
v -0.561426 0.764905 -2.168523
v -1.163373 0.764905 -1.061942
v -1.765321 0.764905 0.044639
v -0.390238 0.000000 -2.075402
v -0.992185 0.000000 -0.968821
v -1.594133 0.000000 0.137760
v 2.030951 3.902490 1.525902
v 2.478587 3.865890 1.005659
v 2.926223 3.829289 0.485416
v 1.781048 3.187586 1.361173
v 2.228684 3.150985 0.840930
v 2.676321 3.114384 0.320687
v 1.598066 2.425988 1.257309
v 2.045702 2.389387 0.737066
v 2.493339 2.352787 0.216823
v 1.466583 1.630288 1.200156
v 1.914219 1.593687 0.679913
v 2.361856 1.557087 0.159670
v 1.443041 0.790680 1.238969
v 1.890677 0.754079 0.718726
v 2.338314 0.717479 0.198483
v 1.426950 0.000000 1.280750
v 1.874587 -0.036601 0.760507
v 2.322223 -0.073202 0.240264
v 4.155557 3.052130 -0.969882
v 3.546899 3.052130 -1.460078
v 2.938241 3.052130 -1.950273
v 3.838996 2.557578 -0.576821
v 3.230338 2.557578 -1.067016
v 2.621680 2.557578 -1.557212
v 3.566244 1.992124 -0.238155
v 2.957587 1.992124 -0.728350
v 2.348928 1.992124 -1.218546
v 3.327521 1.373672 0.058260
v 2.718863 1.373672 -0.431936
v 2.110205 1.373672 -0.922131
v 3.164862 0.667674 0.260227
v 2.556204 0.667674 -0.229968
v 1.947546 0.667674 -0.720164
v 3.016392 0.000000 0.444578
v 2.407734 0.000000 -0.045618
v 1.799076 0.000000 -0.535813
v 1.163521 3.391421 -2.604599
v 0.641104 3.391421 -2.531597
v 0.118687 3.391421 -2.458595
v 1.233277 2.772121 -2.105413
v 0.710860 2.772121 -2.032411
v 0.188443 2.772121 -1.959409
v 1.282535 2.111187 -1.752916
v 0.760118 2.111187 -1.679913
v 0.237701 2.111187 -1.606911
v 1.316032 1.419811 -1.513202
v 0.793615 1.419811 -1.440200
v 0.271198 1.419811 -1.367197
v 1.316706 0.688644 -1.508376
v 0.794290 0.688644 -1.435374
v 0.271873 0.688644 -1.362372
v 1.315512 0.000000 -1.516925
v 0.793095 0.000000 -1.443923
v 0.270678 0.000000 -1.370921
v -1.502357 4.761511 -0.692512
v -1.578866 4.761511 -0.224154
v -1.655375 4.761511 0.244205
v -1.200629 3.892022 -0.643223
v -1.277138 3.892022 -0.174865
v -1.353647 3.892022 0.293493
v -0.987566 2.964080 -0.608418
v -1.064075 2.964080 -0.140060
v -1.140584 2.964080 0.328299
v -0.842674 1.993396 -0.584749
v -0.919183 1.993396 -0.116391
v -0.995692 1.993396 0.351967
v -0.839757 0.966848 -0.584272
v -0.916266 0.966848 -0.115914
v -0.992775 0.966848 0.352444
v -0.844925 0.000000 -0.585116
v -0.921434 0.000000 -0.116758
v -0.997942 0.000000 0.351600
v -0.516949 3.143186 1.496579
v 0.559208 3.143186 0.841791
v 1.635366 3.143186 0.187004
v -0.675864 2.569215 1.235399
v 0.400294 2.569215 0.580612
v 1.476452 2.569215 -0.074176
v -0.788081 1.956659 1.050968
v 0.288077 1.956659 0.396181
v 1.364235 1.956659 -0.258607
v -0.864393 1.315888 0.925548
v 0.211765 1.315888 0.270760
v 1.287922 1.315888 -0.384028
v -0.865929 0.638239 0.923023
v 0.210228 0.638239 0.268235
v 1.286386 0.638239 -0.386553
v -0.863208 0.000000 0.927496
v 0.212950 0.000000 0.272708
v 1.289108 0.000000 -0.382080
v 0.725158 5.751435 0.285423
v 0.984122 5.751435 -0.452870
v 1.243085 5.751435 -1.191164
v 0.249532 4.701178 0.118593
v 0.508496 4.701178 -0.619701
v 0.767459 4.701178 -1.357994
v -0.086329 3.580316 0.000786
v 0.172634 3.580316 -0.737507
v 0.431598 3.580316 -1.475801
v -0.314729 2.407826 -0.079327
v -0.055765 2.407826 -0.817621
v 0.203198 2.407826 -1.555914
v -0.319327 1.167857 -0.080940
v -0.060363 1.167857 -0.819233
v 0.198600 1.167857 -1.557527
v -0.311181 0.000000 -0.078083
v -0.052218 0.000000 -0.816376
v 0.206746 0.000000 -1.554670
vt 0.813881 0.421826
vt 0.759248 0.421826
vt 0.759248 0.345903
vt 0.813881 0.345903
vt 0.706732 0.421826
vt 0.706732 0.345903
vt 0.759248 0.266605
vt 0.813881 0.266605
vt 0.706732 0.266605
vt 0.759248 0.182337
vt 0.813881 0.182337
vt 0.706732 0.182337
vt 0.759248 0.093287
vt 0.813881 0.093287
vt 0.706732 0.093287
vt 0.759248 0.009179
vt 0.813881 0.009179
vt 0.706732 0.009178
vt 0.587016 0.996808
vt 0.458965 0.996808
vt 0.458965 0.924172
vt 0.587016 0.924172
vt 0.318582 0.996808
vt 0.318582 0.924172
vt 0.458965 0.846859
vt 0.587016 0.846859
vt 0.318582 0.846859
vt 0.458965 0.760852
vt 0.587016 0.760852
vt 0.318582 0.760852
vt 0.458965 0.666704
vt 0.587016 0.666704
vt 0.318582 0.666704
vt 0.458965 0.576243
vt 0.587016 0.576243
vt 0.318582 0.576243
vt 0.507010 0.565470
vt 0.409873 0.565470
vt 0.409873 0.458965
vt 0.507010 0.458965
vt 0.315094 0.565470
vt 0.315094 0.458965
vt 0.409873 0.349448
vt 0.507010 0.349448
vt 0.315094 0.349448
vt 0.409873 0.235260
vt 0.507010 0.235260
vt 0.315094 0.235260
vt 0.409873 0.114802
vt 0.507010 0.114802
vt 0.315094 0.114802
vt 0.409873 0.000000
vt 0.507010 0.000000
vt 0.315094 0.000000
vt 0.696150 0.436159
vt 0.601793 0.436159
vt 0.601793 0.364576
vt 0.696150 0.364576
vt 0.513812 0.436159
vt 0.513812 0.364576
vt 0.601793 0.287069
vt 0.696150 0.287069
vt 0.513812 0.287069
vt 0.601793 0.200460
vt 0.696151 0.200460
vt 0.513812 0.200460
vt 0.601793 0.103611
vt 0.696150 0.103611
vt 0.513812 0.103611
vt 0.601793 0.009946
vt 0.696150 0.009946
vt 0.513812 0.009946
vt 0.940781 0.424726
vt 0.881480 0.424726
vt 0.881480 0.349006
vt 0.940781 0.349006
vt 0.825824 0.424726
vt 0.825824 0.349006
vt 0.881480 0.270964
vt 0.940781 0.270964
vt 0.825824 0.270964
vt 0.881480 0.187420
vt 0.940781 0.187420
vt 0.825824 0.187420
vt 0.881480 0.100139
vt 0.940781 0.100139
vt 0.825824 0.100139
vt 0.881480 0.017118
vt 0.940781 0.017118
vt 0.825824 0.017118
vt 0.311118 0.588419
vt 0.254090 0.588419
vt 0.254090 0.482588
vt 0.311118 0.482588
vt 0.194920 0.588419
vt 0.194920 0.482588
vt 0.254090 0.369432
vt 0.311118 0.369432
vt 0.194920 0.369432
vt 0.254090 0.248974
vt 0.311118 0.248974
vt 0.194920 0.248974
vt 0.254090 0.120935
vt 0.311118 0.120935
vt 0.194920 0.120935
vt 0.254090 0.000000
vt 0.311118 0.000000
vt 0.194920 0.000000
vt 0.933090 0.859430
vt 0.771937 0.859430
vt 0.771938 0.779712
vt 0.933090 0.779712
vt 0.613481 0.859430
vt 0.613481 0.779712
vt 0.771938 0.699198
vt 0.933090 0.699197
vt 0.613481 0.699197
vt 0.771938 0.615829
vt 0.933090 0.615829
vt 0.613481 0.615829
vt 0.771938 0.528028
vt 0.933090 0.528028
vt 0.613481 0.528028
vt 0.771938 0.444611
vt 0.933090 0.444611
vt 0.613481 0.444611
vt 0.189417 0.716776
vt 0.092792 0.716776
vt 0.092792 0.578413
vt 0.189417 0.578413
vt 0.000000 0.716776
vt 0.000000 0.578413
vt 0.092792 0.438305
vt 0.189417 0.438305
vt 0.000000 0.438305
vt 0.092792 0.294222
vt 0.189417 0.294222
vt 0.000000 0.294222
vt 0.092792 0.143155
vt 0.189417 0.143155
vt 0.000000 0.143155
vt 0.092792 0.000000
vt 0.189417 0.000000
vt 0.000000 0.000000
vn -0.724065 0.432670 0.537147
vn -0.724065 0.432670 0.537147
vn -0.746691 0.368255 0.553932
vn -0.746691 0.368255 0.553932
vn -0.724065 0.432670 0.537147
vn -0.746691 0.368255 0.553932
vn -0.777149 0.252303 0.576527
vn -0.777149 0.252303 0.576527
vn -0.777149 0.252303 0.576526
vn -0.798958 0.101818 0.592705
vn -0.798958 0.101818 0.592706
vn -0.798958 0.101818 0.592705
vn -0.803131 -0.001561 0.595801
vn -0.803131 -0.001561 0.595801
vn -0.803131 -0.001561 0.595801
vn -0.803110 -0.007391 0.595785
vn -0.803110 -0.007391 0.595786
vn -0.803110 -0.007391 0.595785
vn 0.692460 0.615315 0.376678
vn 0.692460 0.615315 0.376678
vn 0.726180 0.562691 0.395021
vn 0.726180 0.562691 0.395021
vn 0.692460 0.615315 0.376678
vn 0.726180 0.562691 0.395021
vn 0.776743 0.467058 0.422525
vn 0.776743 0.467058 0.422525
vn 0.776743 0.467059 0.422525
vn 0.825877 0.340732 0.449253
vn 0.825878 0.340732 0.449253
vn 0.825877 0.340732 0.449253
vn 0.850104 0.251953 0.462432
vn 0.850104 0.251953 0.462432
vn 0.850104 0.251953 0.462432
vn 0.851250 0.246886 0.463055
vn 0.851250 0.246886 0.463055
vn 0.851250 0.246886 0.463055
vn -0.686902 0.382503 -0.617946
vn -0.686902 0.382502 -0.617946
vn -0.706393 0.321788 -0.630445
vn -0.706393 0.321788 -0.630445
vn -0.686902 0.382502 -0.617946
vn -0.706393 0.321788 -0.630445
vn -0.732819 0.214735 -0.645651
vn -0.732819 0.214735 -0.645651
vn -0.732819 0.214735 -0.645651
vn -0.752926 0.078704 -0.653382
vn -0.752926 0.078704 -0.653382
vn -0.752926 0.078704 -0.653382
vn -0.758429 -0.013775 -0.651611
vn -0.758428 -0.013775 -0.651611
vn -0.758428 -0.013775 -0.651611
vn -0.758545 -0.018982 -0.651344
vn -0.758545 -0.018982 -0.651344
vn -0.758545 -0.018982 -0.651345
vn -0.439007 0.714241 0.545099
vn -0.439007 0.714241 0.545099
vn -0.469400 0.663299 0.582837
vn -0.469400 0.663299 0.582837
vn -0.439007 0.714241 0.545099
vn -0.469400 0.663299 0.582837
vn -0.516568 0.567237 0.641404
vn -0.516569 0.567237 0.641404
vn -0.516568 0.567237 0.641404
vn -0.564776 0.435039 0.701262
vn -0.564776 0.435039 0.701262
vn -0.564776 0.435039 0.701262
vn -0.589958 0.339632 0.732530
vn -0.589958 0.339632 0.732529
vn -0.589958 0.339632 0.732530
vn -0.591190 0.334143 0.734059
vn -0.591190 0.334143 0.734059
vn -0.591190 0.334143 0.734059
vn 0.107338 0.631237 0.768126
vn 0.107338 0.631237 0.768126
vn 0.114883 0.557601 0.822121
vn 0.114883 0.557601 0.822121
vn 0.107338 0.631237 0.768126
vn 0.114883 0.557601 0.822121
vn 0.126573 0.404409 0.905777
vn 0.126573 0.404409 0.905777
vn 0.126573 0.404409 0.905777
vn 0.136356 0.171016 0.975787
vn 0.136356 0.171016 0.975787
vn 0.136356 0.171016 0.975787
vn 0.138395 -0.002648 0.990374
vn 0.138395 -0.002648 0.990374
vn 0.138394 -0.002648 0.990374
vn 0.138384 -0.012534 0.990299
vn 0.138384 -0.012534 0.990299
vn 0.138384 -0.012534 0.990299
vn 0.931041 0.331708 0.152091
vn 0.931041 0.331708 0.152091
vn 0.947815 0.278701 0.154831
vn 0.947815 0.278701 0.154831
vn 0.931041 0.331708 0.152091
vn 0.947815 0.278701 0.154831
vn 0.969389 0.187640 0.158355
vn 0.969389 0.187640 0.158355
vn 0.969389 0.187640 0.158355
vn 0.984156 0.074778 0.160767
vn 0.984156 0.074778 0.160767
vn 0.984156 0.074778 0.160767
vn 0.986918 -0.001144 0.161219
vn 0.986918 -0.001144 0.161219
vn 0.986918 -0.001144 0.161219
vn 0.986904 -0.005415 0.161216
vn 0.986904 -0.005415 0.161216
vn 0.986904 -0.005415 0.161216
vn -0.458771 0.470120 -0.754000
vn -0.458771 0.470120 -0.754000
vn -0.475842 0.402443 -0.782057
vn -0.475842 0.402443 -0.782057
vn -0.458771 0.470120 -0.754000
vn -0.475843 0.402443 -0.782057
vn -0.499306 0.277984 -0.820621
vn -0.499306 0.277984 -0.820621
vn -0.499306 0.277984 -0.820621
vn -0.516472 0.112871 -0.848833
vn -0.516472 0.112871 -0.848833
vn -0.516472 0.112871 -0.848833
vn -0.519793 -0.001733 -0.854291
vn -0.519793 -0.001733 -0.854291
vn -0.519793 -0.001733 -0.854291
vn -0.519776 -0.008203 -0.854263
vn -0.519776 -0.008203 -0.854263
vn -0.519776 -0.008203 -0.854263
vn -0.850736 0.432670 -0.298404
vn -0.850736 0.432670 -0.298404
vn -0.877321 0.368255 -0.307729
vn -0.877321 0.368255 -0.307729
vn -0.850736 0.432670 -0.298404
vn -0.877321 0.368255 -0.307728
vn -0.913106 0.252303 -0.320281
vn -0.913106 0.252303 -0.320281
vn -0.913106 0.252303 -0.320281
vn -0.938731 0.101818 -0.329269
vn -0.938731 0.101818 -0.329269
vn -0.938731 0.101818 -0.329269
vn -0.943634 -0.001561 -0.330988
vn -0.943634 -0.001561 -0.330988
vn -0.943634 -0.001561 -0.330988
vn -0.943609 -0.007391 -0.330980
vn -0.943609 -0.007391 -0.330980
vn -0.943609 -0.007391 -0.330980
s 1
g group4_pasted__pPlane1
usemtl initialShadingGroup
f 1/1/1 2/2/2 5/3/3 4/4/4
f 2/2/2 3/5/5 6/6/6 5/3/3
f 4/4/4 5/3/3 8/7/7 7/8/8
f 5/3/3 6/6/6 9/9/9 8/7/7
f 7/8/8 8/7/7 11/10/10 10/11/11
f 8/7/7 9/9/9 12/12/12 11/10/10
f 10/11/11 11/10/10 14/13/13 13/14/14
f 11/10/10 12/12/12 15/15/15 14/13/13
f 13/14/14 14/13/13 17/16/16 16/17/17
f 14/13/13 15/15/15 18/18/18 17/16/16
s 2
f 19/19/19 20/20/20 23/21/21 22/22/22
f 20/20/20 21/23/23 24/24/24 23/21/21
f 22/22/22 23/21/21 26/25/25 25/26/26
f 23/21/21 24/24/24 27/27/27 26/25/25
f 25/26/26 26/25/25 29/28/28 28/29/29
f 26/25/25 27/27/27 30/30/30 29/28/28
f 28/29/29 29/28/28 32/31/31 31/32/32
f 29/28/28 30/30/30 33/33/33 32/31/31
f 31/32/32 32/31/31 35/34/34 34/35/35
f 32/31/31 33/33/33 36/36/36 35/34/34
s 3
f 37/37/37 38/38/38 41/39/39 40/40/40
f 38/38/38 39/41/41 42/42/42 41/39/39
f 40/40/40 41/39/39 44/43/43 43/44/44
f 41/39/39 42/42/42 45/45/45 44/43/43
f 43/44/44 44/43/43 47/46/46 46/47/47
f 44/43/43 45/45/45 48/48/48 47/46/46
f 46/47/47 47/46/46 50/49/49 49/50/50
f 47/46/46 48/48/48 51/51/51 50/49/49
f 49/50/50 50/49/49 53/52/52 52/53/53
f 50/49/49 51/51/51 54/54/54 53/52/52
s 4
f 55/55/55 56/56/56 59/57/57 58/58/58
f 56/56/56 57/59/59 60/60/60 59/57/57
f 58/58/58 59/57/57 62/61/61 61/62/62
f 59/57/57 60/60/60 63/63/63 62/61/61
f 61/62/62 62/61/61 65/64/64 64/65/65
f 62/61/61 63/63/63 66/66/66 65/64/64
f 64/65/65 65/64/64 68/67/67 67/68/68
f 65/64/64 66/66/66 69/69/69 68/67/67
f 67/68/68 68/67/67 71/70/70 70/71/71
f 68/67/67 69/69/69 72/72/72 71/70/70
s 5
f 73/73/73 74/74/74 77/75/75 76/76/76
f 74/74/74 75/77/77 78/78/78 77/75/75
f 76/76/76 77/75/75 80/79/79 79/80/80
f 77/75/75 78/78/78 81/81/81 80/79/79
f 79/80/80 80/79/79 83/82/82 82/83/83
f 80/79/79 81/81/81 84/84/84 83/82/82
f 82/83/83 83/82/82 86/85/85 85/86/86
f 83/82/82 84/84/84 87/87/87 86/85/85
f 85/86/86 86/85/85 89/88/88 88/89/89
f 86/85/85 87/87/87 90/90/90 89/88/88
s 6
f 91/91/91 92/92/92 95/93/93 94/94/94
f 92/92/92 93/95/95 96/96/96 95/93/93
f 94/94/94 95/93/93 98/97/97 97/98/98
f 95/93/93 96/96/96 99/99/99 98/97/97
f 97/98/98 98/97/97 101/100/100 100/101/101
f 98/97/97 99/99/99 102/102/102 101/100/100
f 100/101/101 101/100/100 104/103/103 103/104/104
f 101/100/100 102/102/102 105/105/105 104/103/103
f 103/104/104 104/103/103 107/106/106 106/107/107
f 104/103/103 105/105/105 108/108/108 107/106/106
s 7
f 109/109/109 110/110/110 113/111/111 112/112/112
f 110/110/110 111/113/113 114/114/114 113/111/111
f 112/112/112 113/111/111 116/115/115 115/116/116
f 113/111/111 114/114/114 117/117/117 116/115/115
f 115/116/116 116/115/115 119/118/118 118/119/119
f 116/115/115 117/117/117 120/120/120 119/118/118
f 118/119/119 119/118/118 122/121/121 121/122/122
f 119/118/118 120/120/120 123/123/123 122/121/121
f 121/122/122 122/121/121 125/124/124 124/125/125
f 122/121/121 123/123/123 126/126/126 125/124/124
s 8
f 127/127/127 128/128/128 131/129/129 130/130/130
f 128/128/128 129/131/131 132/132/132 131/129/129
f 130/130/130 131/129/129 134/133/133 133/134/134
f 131/129/129 132/132/132 135/135/135 134/133/133
f 133/134/134 134/133/133 137/136/136 136/137/137
f 134/133/133 135/135/135 138/138/138 137/136/136
f 136/137/137 137/136/136 140/139/139 139/140/140
f 137/136/136 138/138/138 141/141/141 140/139/139
f 139/140/140 140/139/139 143/142/142 142/143/143
f 140/139/139 141/141/141 144/144/144 143/142/142
